<svg id="Layer_1" data-name="Layer 1" xmlns="http://www.w3.org/2000/svg" viewBox="0 0 706.07 347.21"><defs><style>.cls-1{fill:tomato;}.cls-2{fill:#fff;}</style></defs><title>logo</title><path class="cls-1" d="M236.93,456.54H205.19v87.3H88.13V196.63H255.28q48.11,0,83.83,15.87t55.06,45.63q19.35,29.78,19.34,69.45,0,37.2-16.86,65T348,436.7L421,543.84H296Zm46.63-159q-11.91-10.67-35.72-10.67H205.19v81.35h42.65q23.82,0,35.72-10.66t11.9-30Q295.46,308.23,283.56,297.57Z" transform="translate(-58.13 -196.63)"/><path class="cls-1" d="M764.2,453.07v90.77H445.26V471.92L604,287.4H450.22V196.63h306v71.92L597.54,453.07Z" transform="translate(-58.13 -196.63)"/><path class="cls-2" d="M206.93,456.54H175.19v87.3H58.13V196.63H225.28q48.11,0,83.83,15.87t55.06,45.63q19.35,29.78,19.34,69.45,0,37.2-16.86,65T318,436.7L391,543.84H266Zm46.63-159q-11.91-10.67-35.72-10.67H175.19v81.35h42.65q23.82,0,35.72-10.66t11.9-30Q265.46,308.23,253.56,297.57Z" transform="translate(-58.13 -196.63)"/><path class="cls-2" d="M734.2,453.07v90.77H415.26V471.92L574,287.4H420.22V196.63h306v71.92L567.54,453.07Z" transform="translate(-58.13 -196.63)"/></svg>